<?xml version="1.0" encoding="UTF-8" standalone="no"?>
<!-- Created with Inkscape (http://www.inkscape.org/) -->

<svg
   xmlns:dc="http://purl.org/dc/elements/1.1/"
   xmlns:cc="http://creativecommons.org/ns#"
   xmlns:rdf="http://www.w3.org/1999/02/22-rdf-syntax-ns#"
   xmlns:svg="http://www.w3.org/2000/svg"
   xmlns="http://www.w3.org/2000/svg"
   xmlns:xlink="http://www.w3.org/1999/xlink"
   xmlns:sodipodi="http://sodipodi.sourceforge.net/DTD/sodipodi-0.dtd"
   xmlns:inkscape="http://www.inkscape.org/namespaces/inkscape"
   width="211"
   height="28"
   viewBox="0 0 55.827078 7.408338"
   version="1.1"
   id="svg5320"
   inkscape:version="0.92.2 (unknown)"
   sodipodi:docname="logo-tepark-line-grey1.svg">
  <defs
     id="defs5314">
    <linearGradient
       xlink:href="#grad1"
       id="grad2"
       x1="254.68729"
       y1="138.30676"
       x2="254.68729"
       y2="172.08391"
       gradientTransform="scale(1.2367005,0.80860321)"
       gradientUnits="userSpaceOnUse" />
    <linearGradient
       id="grad1">
      <stop
         offset="0.0000%"
         stop-color="#ea570f"
         stop-opacity="1.0000"
         id="stop9" />
      <stop
         offset="46.0000%"
         stop-color="#ea5d0d"
         stop-opacity="1.0000"
         id="stop11" />
      <stop
         offset="72.0000%"
         stop-color="#fec300"
         stop-opacity="1.0000"
         id="stop13" />
      <stop
         offset="100.0000%"
         stop-color="#f07d05"
         stop-opacity="1.0000"
         id="stop15" />
    </linearGradient>
    <linearGradient
       xlink:href="#grad1"
       id="linearGradient5309"
       x1="0"
       y1="0"
       x2="0"
       y2="1"
       gradientTransform="rotate(-82,0.5,0.5)"
       gradientUnits="objectBoundingBox" />
    <linearGradient
       inkscape:collect="always"
       xlink:href="#grad1"
       id="linearGradient5909"
       x1="314.97189"
       y1="125.49145"
       x2="356.74411"
       y2="125.49145"
       gradientUnits="userSpaceOnUse" />
  </defs>
  <sodipodi:namedview
     id="base"
     pagecolor="#ffffff"
     bordercolor="#666666"
     borderopacity="1.0"
     inkscape:pageopacity="0.0"
     inkscape:pageshadow="2"
     inkscape:zoom="1.4"
     inkscape:cx="257.80605"
     inkscape:cy="-24.417157"
     inkscape:document-units="mm"
     inkscape:current-layer="Layer1000"
     showgrid="false"
     inkscape:showpageshadow="false"
     units="px"
     inkscape:window-width="1366"
     inkscape:window-height="718"
     inkscape:window-x="0"
     inkscape:window-y="0"
     inkscape:window-maximized="1" />
  <metadata
     id="metadata5317">
    <rdf:RDF>
      <cc:Work
         rdf:about="">
        <dc:format>image/svg+xml</dc:format>
        <dc:type
           rdf:resource="http://purl.org/dc/dcmitype/StillImage" />
        <dc:title></dc:title>
      </cc:Work>
    </rdf:RDF>
  </metadata>
  <g
     inkscape:label="Layer 1"
     inkscape:groupmode="layer"
     id="layer1"
     transform="translate(0,-289.59141)">
    <g
       transform="matrix(0.26458333,0,0,0.26458333,-83.336314,260.18385)"
       id="Layer1000">
      <g
         id="Layer1001">
        <path
           d="m 373.2146,137.0133 h -4.3986 v -13.6836 h -5.1319 v -3.421 h 14.6624 v 3.421 h -5.1319 z m 19.8278,0 h -13.5623 v -17.1046 h 13.5623 v 3.421 h -9.1641 v 3.2985 h 7.2093 v 3.421 h -7.2093 v 3.5431 h 9.1641 z m 6.0208,0.0735 c -1.597,0 -2.7698,-0.3706 -3.5192,-1.1122 -0.7494,-0.7411 -1.1237,-1.9057 -1.1237,-3.4858 v -7.742 c 0,-1.694 0.3866,-2.9241 1.1604,-3.6896 0.7737,-0.7655 2.0163,-1.1485 3.7268,-1.1485 h 8.7972 v 3.421 h -7.8196 c -0.9776,0 -1.4662,0.4845 -1.4662,1.458 v 7.7742 c 0,0.3706 0.1097,0.6681 0.3297,0.8839 0.2199,0.22 0.5175,0.3297 0.8922,0.3297 0.3095,0 0.6677,0 1.075,0 0.4073,0 0.8307,0 1.2706,0 0.4399,0 0.8835,0 1.3316,0 0.4486,0 0.8844,-0.0689 1.3078,-0.2075 0.9937,0 2.02,0 3.0789,0 v 3.201 c -1.0915,0.2117 -2.1748,0.3178 -3.2502,0.3178 -0.9285,0 -1.9102,0 -2.9448,0 -1.0341,0 -1.9832,0 -2.8465,0 z m 25.5704,-0.0735 h -4.399 v -6.9641 h -6.1091 v 6.9641 h -4.3986 v -17.1046 h 4.3986 v 6.7195 h 6.1091 v -6.7195 h 4.399 z m 16.7728,0 h -4.6429 l -5.8648,-10.2626 v 10.2626 h -4.3986 v -17.1046 h 4.6429 l 5.8648,10.2626 v -10.2626 h 4.3986 z m 13.1075,-12.4621 c 0,-0.9772 -0.489,-1.4658 -1.4662,-1.4658 h -4.1539 c -0.978,0 -1.4666,0.4886 -1.4666,1.4658 v 7.8196 c 0,0.9772 0.4886,1.4658 1.4666,1.4658 h 4.1539 c 0.9772,0 1.4662,-0.4886 1.4662,-1.4658 z m 4.3986,7.8196 c 0,1.7101 -0.387,2.9522 -1.1608,3.7264 -0.7737,0.7737 -2.0159,1.1604 -3.7268,1.1604 h -6.1091 c -1.7105,0 -2.9526,-0.3867 -3.7264,-1.1604 -0.7737,-0.7742 -1.1604,-2.0163 -1.1604,-3.7264 v -7.8196 c 0,-1.7105 0.3867,-2.9526 1.1604,-3.7264 0.7738,-0.7737 2.0159,-1.1604 3.7264,-1.1604 h 6.1091 c 1.7109,0 2.9531,0.3867 3.7268,1.1604 0.7738,0.7738 1.1608,2.0159 1.1608,3.7264 z"
           style="fill:#f07c00;fill-rule:evenodd"
           id="path4"
           inkscape:connector-curvature="0" />
        <path
           d="m 460.779,119.9087 h 10.2634 c 1.7105,0 2.9527,0.3867 3.7268,1.1608 0.7738,0.7738 1.1609,2.0159 1.1609,3.7264 v 2.4434 c 0,1.7105 -0.3871,2.9526 -1.1609,3.7264 -0.7741,0.7737 -2.0163,1.1604 -3.7268,1.1604 h -5.8648 v 4.8872 h -4.3986 z m 10.752,4.8872 c 0,-0.9776 -0.4886,-1.4662 -1.4657,-1.4662 h -4.8877 v 5.3758 h 4.8877 c 0.9771,0 1.4657,-0.489 1.4657,-1.4662 z m 7.6092,12.2174 h -4.7651 l 6.4756,-17.1046 h 4.8876 l 6.4756,17.1046 h -4.7647 l -1.1001,-3.0545 h -6.1092 z m 2.1999,-6.2308 h 3.9096 l -1.9548,-5.7423 z m 11.7631,-10.8738 h 10.2634 c 1.7105,0 2.9526,0.3867 3.7268,1.1608 0.7737,0.7738 1.1608,2.0159 1.1608,3.7264 v 2.1991 c 0,1.3519 -0.2241,2.4026 -0.6722,3.152 -0.4478,0.7494 -1.1609,1.2462 -2.1385,1.4905 l 3.055,5.3758 h -4.7655 l -2.8098,-5.1315 h -3.4214 v 5.1315 h -4.3986 z m 10.752,4.8872 c 0,-0.9776 -0.4886,-1.4662 -1.4658,-1.4662 h -4.8876 v 5.1311 h 4.8876 c 0.9772,0 1.4658,-0.4886 1.4658,-1.4658 z m 11.1527,12.2174 h -4.3986 v -17.1046 h 4.3986 v 6.7195 h 2.1991 l 3.8126,-6.7195 h 4.6425 l -4.7894,8.43 4.7651,8.6746 h -4.643 l -3.7878,-6.9641 h -2.1991 z"
           style="fill:#868789;fill-rule:evenodd"
           id="path6"
           inkscape:connector-curvature="0" />
      </g>
      <defs
         id="defs19">
        <linearGradient
           id="RESERVED_FOR_INKSCAPE_DUPLICATE_DEF_000000000">
          <stop
             offset="0.0000%"
             stop-color="#ea570f"
             stop-opacity="1.0000"
             id="stop5299" />
          <stop
             offset="46.0000%"
             stop-color="#ea5d0d"
             stop-opacity="1.0000"
             id="stop5301" />
          <stop
             offset="72.0000%"
             stop-color="#fec300"
             stop-opacity="1.0000"
             id="stop5303" />
          <stop
             offset="100.0000%"
             stop-color="#f07d05"
             stop-opacity="1.0000"
             id="stop5305" />
        </linearGradient>
        <linearGradient
           xlink:href="#grad1"
           id="linearGradient5359"
           x1="0"
           y1="0"
           x2="0"
           y2="1"
           gradientTransform="rotate(-82,0.5,0.5)"
           gradientUnits="objectBoundingBox" />
      </defs>
      <path
         d="m 356.7441,139.1476 -0.0804,-0.0419 c -11.8117,0.0708 -9.3617,-3.7412 -21.2796,-3.4751 L 335.3,135.5299 v -5.0497 c 11.6897,-0.2641 10.7616,3.8844 18.2357,3.5495 v -13.2999 c -7.3609,0.3718 -7.0981,-3.8495 -18.2357,-3.8528 v 0.0306 -0.0306 h -6.2825 v 20.1667 H 322.535 V 116.877 h -7.5631 v -5.0417 l 21.6087,0.0156 v 0 c 10.6317,-0.1 8.6013,3.6897 20.0047,3.6392 l 0.0581,-0.0688 0.0203,0.011 0.0206,-0.011 0.0584,0.0688 10e-4,0.001 c 0,7.8641 0,15.7335 0,23.6565 z m -21.359,-12.9548 -0.0851,-0.0993 v -5.0507 c 7.8774,0 5.9935,-0.7252 12.4425,2.6057 0,1.7318 0,3.4625 0,5.1946 -0.007,0.004 1.9928,1.065 1.9859,1.0697 -0.0117,-0.0143 -2.0311,-1.0856 -2.0424,-1.0993 -0.0315,-0.0166 -0.0628,-0.0318 -0.094,-0.0488 -6.2194,-3.2097 -4.6607,-2.5692 -12.2069,-2.5719 z"
         style="fill:url(#linearGradient5909);fill-opacity:1.0"
         id="path21"
         inkscape:connector-curvature="0" />
    </g>
  </g>
</svg>
