<?xml version="1.0" encoding="UTF-8"?>
<!DOCTYPE svg PUBLIC "-//W3C//DTD SVG 1.1//EN" "http://www.w3.org/Graphics/SVG/1.1/DTD/svg11.dtd">
<!-- Creator: CorelDRAW X8 -->
<svg xmlns="http://www.w3.org/2000/svg" xml:space="preserve" width="178px" height="60px" version="1.1" style="shape-rendering:geometricPrecision; text-rendering:geometricPrecision; image-rendering:optimizeQuality; fill-rule:evenodd; clip-rule:evenodd"
viewBox="0 0 177 60"
 xmlns:xlink="http://www.w3.org/1999/xlink">
 <defs>
  <style type="text/css">
   <![CDATA[
    .fil2 {fill:#898989;fill-rule:nonzero}
    .fil1 {fill:#EF7F1A;fill-rule:nonzero}
    .fil0 {fill:url(#id0)}
   ]]>
  </style>
  <linearGradient id="id0" gradientUnits="userSpaceOnUse" x1="64.5188" y1="8.7392" x2="111.303" y2="12.6927">
   <stop offset="0" style="stop-opacity:1; stop-color:#E95B21"/>
   <stop offset="0.458824" style="stop-opacity:1; stop-color:#EA6220"/>
   <stop offset="0.721569" style="stop-opacity:1; stop-color:#FDC407"/>
   <stop offset="1" style="stop-opacity:1; stop-color:#EF801D"/>
  </linearGradient>
 </defs>
 <g id="Слой_x0020_1">
  <metadata id="CorelCorpID_0Corel-Layer"/>
  <g id="_672642784">
   <path class="fil0" d="M111 30l0 0c-13,0 -10,-4 -23,-4l0 0 0 -5c13,-1 12,4 20,3l0 -14c-8,0 -8,-4 -20,-4l0 0 0 0 -7 0 0 22 -7 0 0 -22 -9 0 0 -6 24 0 0 0c12,0 10,4 22,4l0 0 0 0 0 0 0 0 0 0c0,9 0,17 0,26zm-23 -14l0 0 0 -6c8,0 6,-1 13,3 0,2 0,4 0,6 0,0 3,1 3,1 0,0 -3,-1 -3,-1 0,0 0,0 0,0 -7,-4 -5,-3 -13,-3z"/>
   <g>
    <path class="fil1" d="M10 59l-4 0 0 -15 -6 0 0 -3 16 0 0 3 -6 0 0 15zm22 0l-15 0 0 -18 15 0 0 3 -10 0 0 4 8 0 0 4 -8 0 0 4 10 0 0 3zm7 0c-2,0 -3,0 -4,-1 -1,-1 -1,-2 -1,-4l0 -8c0,-2 0,-3 1,-4 1,-1 2,-1 4,-1l9 0 0 3 -8 0c-1,0 -2,1 -2,2l0 9c0,0 0,0 1,0 0,1 0,1 1,1 0,0 0,0 1,0 0,0 1,0 1,0 1,0 1,0 2,0 0,0 1,0 1,0 1,0 2,0 3,0l0 3c-1,0 -2,0 -3,0 -1,0 -2,0 -3,0 -1,0 -2,0 -3,0zm27 0l-4 0 0 -7 -7 0 0 7 -5 0 0 -18 5 0 0 7 7 0 0 -7 4 0 0 18zm19 0l-5 0 -7 -11 0 11 -5 0 0 -18 6 0 6 11 0 -11 5 0 0 18zm14 -13c0,-1 -1,-2 -2,-2l-4 0c-1,0 -2,1 -2,2l0 8c0,1 1,2 2,2l4 0c1,0 2,-1 2,-2l0 -8zm5 8c0,2 -1,4 -1,4 -1,1 -3,2 -5,2l-6 0c-2,0 -3,-1 -4,-2 -1,0 -2,-2 -2,-4l0 -8c0,-2 1,-3 2,-4 1,-1 2,-2 4,-2l6 0c2,0 4,1 5,2 0,1 1,2 1,4l0 8z"/>
    <path class="fil2" d="M106 41l11 0c2,0 3,0 4,1 1,1 1,2 1,4l0 3c0,2 0,3 -1,4 -1,1 -2,1 -4,1l-6 0 0 5 -5 0 0 -18zm12 5c0,-1 -1,-2 -2,-2l-5 0 0 6 5 0c1,0 2,0 2,-1l0 -3zm8 13l-5 0 7 -18 5 0 7 18 -5 0 -1 -3 -7 0 -1 3zm2 -6l5 0 -3 -7 -2 7zm13 -12l11 0c2,0 3,0 4,1 1,1 2,2 2,4l0 2c0,2 -1,3 -1,4 -1,1 -1,1 -2,2l3 5 -5 0 -3 -5 -4 0 0 5 -5 0 0 -18zm12 5c0,-1 -1,-2 -2,-2l-5 0 0 6 5 0c1,0 2,0 2,-2l0 -2zm12 13l-5 0 0 -18 5 0 0 7 2 0 5 -7 5 0 -6 9 6 9 -6 0 -4 -7 -2 0 0 7z"/>
   </g>
  </g>
 </g>
</svg>
