<?xml version="1.0" encoding="UTF-8" standalone="no"?>
<!-- Created with Inkscape (http://www.inkscape.org/) -->

<svg
   xmlns:dc="http://purl.org/dc/elements/1.1/"
   xmlns:cc="http://creativecommons.org/ns#"
   xmlns:rdf="http://www.w3.org/1999/02/22-rdf-syntax-ns#"
   xmlns:svg="http://www.w3.org/2000/svg"
   xmlns="http://www.w3.org/2000/svg"
   xmlns:xlink="http://www.w3.org/1999/xlink"
   xmlns:sodipodi="http://sodipodi.sourceforge.net/DTD/sodipodi-0.dtd"
   xmlns:inkscape="http://www.inkscape.org/namespaces/inkscape"
   width="156"
   height="53"
   viewBox="0 0 41.275034 14.022925"
   version="1.1"
   id="svg4364"
   inkscape:version="0.92.2 (unknown)"
   sodipodi:docname="logo-tepark-grey1.svg">
  <defs
     id="defs4358">
    <linearGradient
       xlink:href="#grad3"
       id="grad4"
       x1="323.49478"
       y1="332.57718"
       x2="323.49478"
       y2="365.32721"
       gradientTransform="scale(1.2367004,0.80860331)"
       gradientUnits="userSpaceOnUse" />
    <linearGradient
       id="grad3">
      <stop
         offset="0.0000%"
         stop-color="#ea570f"
         stop-opacity="1.0000"
         id="stop26" />
      <stop
         offset="46.0000%"
         stop-color="#ea5d0d"
         stop-opacity="1.0000"
         id="stop28" />
      <stop
         offset="72.0000%"
         stop-color="#fec300"
         stop-opacity="1.0000"
         id="stop30" />
      <stop
         offset="100.0000%"
         stop-color="#f07d05"
         stop-opacity="1.0000"
         id="stop32" />
    </linearGradient>
    <linearGradient
       xlink:href="#grad3"
       id="linearGradient4350"
       x1="0"
       y1="0"
       x2="0"
       y2="1"
       gradientTransform="rotate(-82,0.5,0.5)"
       gradientUnits="objectBoundingBox" />
    <linearGradient
       inkscape:collect="always"
       xlink:href="#RESERVED_FOR_INKSCAPE_DUPLICATE_DEF_000000000"
       id="linearGradient5237"
       x1="400.0661"
       y1="282.16391"
       x2="440.56812"
       y2="282.16391"
       gradientUnits="userSpaceOnUse" />
  </defs>
  <sodipodi:namedview
     id="base"
     pagecolor="#ffffff"
     bordercolor="#666666"
     borderopacity="1.0"
     inkscape:pageopacity="0.0"
     inkscape:pageshadow="2"
     inkscape:zoom="2.8"
     inkscape:cx="180.02175"
     inkscape:cy="11.676457"
     inkscape:document-units="mm"
     inkscape:current-layer="layer1"
     showgrid="false"
     units="px"
     inkscape:showpageshadow="false"
     inkscape:window-width="1366"
     inkscape:window-height="718"
     inkscape:window-x="0"
     inkscape:window-y="0"
     inkscape:window-maximized="1" />
  <metadata
     id="metadata4361">
    <rdf:RDF>
      <cc:Work
         rdf:about="">
        <dc:format>image/svg+xml</dc:format>
        <dc:type
           rdf:resource="http://purl.org/dc/dcmitype/StillImage" />
        <dc:title></dc:title>
      </cc:Work>
    </rdf:RDF>
  </metadata>
  <g
     inkscape:label="Layer 1"
     inkscape:groupmode="layer"
     id="layer1"
     transform="translate(0,-282.97664)">
    <g
       transform="matrix(0.26458333,0,0,0.26458333,-90.682126,211.98061)"
       id="Layer1002">
      <defs
         id="defs36">
        <linearGradient
           id="RESERVED_FOR_INKSCAPE_DUPLICATE_DEF_000000000">
          <stop
             offset="0.0000%"
             stop-color="#ea570f"
             stop-opacity="1.0000"
             id="stop4340" />
          <stop
             offset="46.0000%"
             stop-color="#ea5d0d"
             stop-opacity="1.0000"
             id="stop4342" />
          <stop
             offset="72.0000%"
             stop-color="#fec300"
             stop-opacity="1.0000"
             id="stop4344" />
          <stop
             offset="100.0000%"
             stop-color="#f07d05"
             stop-opacity="1.0000"
             id="stop4346" />
        </linearGradient>
        <linearGradient
           xlink:href="#grad3"
           id="linearGradient4402"
           x1="0"
           y1="0"
           x2="0"
           y2="1"
           gradientTransform="rotate(-82,0.5,0.5)"
           gradientUnits="objectBoundingBox" />
      </defs>
      <path
         d="m 440.5681,295.4048 -0.078,-0.0406 c -11.4524,0.0686 -9.077,-3.6274 -20.6325,-3.3694 l -0.0815,-0.0976 v -4.8962 c 11.3343,-0.2561 10.4343,3.7662 17.6812,3.4416 v -12.8955 c -7.137,0.3605 -6.8823,-3.7324 -17.6812,-3.7356 v 0.0296 -0.0296 h -6.0915 v 19.5535 h -6.2854 v -19.5535 h -7.3331 v -4.8885 l 20.9517,0.0151 v 0 c 10.3084,-0.0969 8.3397,3.5776 19.3963,3.5286 l 0.0564,-0.0667 0.0196,0.0107 0.02,-0.0107 0.0567,0.0667 10e-4,10e-4 c 0,7.625 0,15.2551 0,22.9371 z m -20.7095,-12.5608 -0.0825,-0.0963 v -4.8972 c 7.6379,0 5.8113,-0.7031 12.0641,2.5266 0,1.6791 0,3.3572 0,5.0366 -0.007,0.003 1.9323,1.0326 1.9255,1.0371 -0.0113,-0.0138 -1.9693,-1.0526 -1.9802,-1.0658 -0.0306,-0.0161 -0.0609,-0.0309 -0.0912,-0.0473 -6.0303,-3.1121 -4.519,-2.4911 -11.8357,-2.4937 z"
         style="fill:url(#linearGradient5237);fill-opacity:1"
         id="path38"
         inkscape:connector-curvature="0" />
      <g
         id="Layer1003">
        <path
           d="m 351.8651,321.0981 h -4.2135 v -13.1078 h -4.916 v -3.2771 h 14.0455 v 3.2771 h -4.916 z m 18.9935,0 H 357.867 v -16.3849 h 12.9916 v 3.2771 h -8.7785 v 3.1596 h 6.906 v 3.2771 h -6.906 v 3.3941 h 8.7785 z m 5.7675,0.0704 c -1.5298,0 -2.6533,-0.355 -3.3711,-1.0654 -0.7179,-0.7099 -1.0765,-1.8255 -1.0765,-3.3391 v -7.4163 c 0,-1.6227 0.3704,-2.8011 1.1116,-3.5344 0.7412,-0.7332 1.9315,-1.1001 3.57,-1.1001 h 8.4271 v 3.2771 h -7.4906 c -0.9365,0 -1.4045,0.4641 -1.4045,1.3966 v 7.4471 c 0,0.355 0.1051,0.64 0.3158,0.8467 0.2107,0.2107 0.4957,0.3159 0.8547,0.3159 0.2964,0 0.6396,0 1.0297,0 0.3902,0 0.7958,0 1.2172,0 0.4214,0 0.8463,0 1.2756,0 0.4297,0 0.8471,-0.066 1.2527,-0.1989 0.9519,0 1.935,0 2.9494,0 v 3.0664 c -1.0456,0.2028 -2.0833,0.3044 -3.1134,0.3044 -0.8895,0 -1.8299,0 -2.8209,0 -0.9906,0 -1.8998,0 -2.7268,0 z m 24.4945,-0.0704 h -4.2139 v -6.6711 h -5.8521 v 6.6711 h -4.2135 v -16.3849 h 4.2135 v 6.4367 h 5.8521 v -6.4367 h 4.2139 z m 16.0671,0 h -4.4476 l -5.618,-9.8308 v 9.8308 h -4.2135 v -16.3849 h 4.4475 l 5.6181,9.8308 v -9.8308 h 4.2135 z m 12.556,-11.9377 c 0,-0.9361 -0.4685,-1.4041 -1.4045,-1.4041 H 424.36 c -0.9368,0 -1.4049,0.468 -1.4049,1.4041 v 7.4906 c 0,0.936 0.4681,1.4041 1.4049,1.4041 h 3.9792 c 0.936,0 1.4045,-0.4681 1.4045,-1.4041 z m 4.2135,7.4906 c 0,1.6381 -0.3708,2.828 -1.112,3.5695 -0.7412,0.7412 -1.931,1.1116 -3.57,1.1116 h -5.852 c -1.6385,0 -2.8284,-0.3704 -3.5696,-1.1116 -0.7412,-0.7415 -1.1116,-1.9314 -1.1116,-3.5695 v -7.4906 c 0,-1.6386 0.3704,-2.8284 1.1116,-3.5696 0.7412,-0.7412 1.9311,-1.1116 3.5696,-1.1116 h 5.852 c 1.639,0 2.8288,0.3704 3.57,1.1116 0.7412,0.7412 1.112,1.931 1.112,3.5696 z"
           style="fill:#f07c00;fill-rule:evenodd"
           id="path40"
           inkscape:connector-curvature="0" />
        <path
           d="m 435.7452,304.7132 h 9.8315 c 1.6386,0 2.8284,0.3704 3.57,1.112 0.7412,0.7412 1.112,1.9311 1.112,3.5696 v 2.3406 c 0,1.6385 -0.3708,2.8284 -1.112,3.5696 -0.7416,0.7411 -1.9314,1.1115 -3.57,1.1115 h -5.618 v 4.6816 h -4.2135 z m 10.2996,4.6816 c 0,-0.9365 -0.4681,-1.4045 -1.4042,-1.4045 h -4.6819 v 5.1496 h 4.6819 c 0.9361,0 1.4042,-0.4685 1.4042,-1.4045 z m 7.2889,11.7033 h -4.5645 l 6.2031,-16.3849 h 4.6819 l 6.2031,16.3849 h -4.5641 l -1.0539,-2.926 h -5.8521 z m 2.1074,-5.9687 h 3.7451 l -1.8726,-5.5006 z m 11.2681,-10.4162 h 9.8316 c 1.6385,0 2.8284,0.3704 3.5699,1.112 0.7412,0.7412 1.112,1.9311 1.112,3.5696 v 2.1066 c 0,1.295 -0.2146,2.3014 -0.6439,3.0193 -0.4289,0.7178 -1.112,1.1938 -2.0485,1.4278 l 2.9264,5.1496 h -4.5649 l -2.6916,-4.9156 h -3.2775 v 4.9156 h -4.2135 z m 10.2996,4.6816 c 0,-0.9365 -0.468,-1.4045 -1.4041,-1.4045 h -4.682 v 4.9152 h 4.682 c 0.9361,0 1.4041,-0.4681 1.4041,-1.4041 z m 10.6834,11.7033 h -4.2135 v -16.3849 h 4.2135 v 6.4367 h 2.1066 l 3.6522,-6.4367 h 4.4472 l -4.5879,8.0753 4.5645,8.3096 h -4.4475 l -3.6285,-6.6711 h -2.1066 z"
           style="fill:#868789;fill-rule:evenodd"
           id="path42"
           inkscape:connector-curvature="0" />
      </g>
    </g>
  </g>
</svg>
