<?xml version="1.0" encoding="UTF-8"?>
<!DOCTYPE svg PUBLIC "-//W3C//DTD SVG 1.1//EN" "http://www.w3.org/Graphics/SVG/1.1/DTD/svg11.dtd">
<!-- Creator: CorelDRAW X8 -->
<svg xmlns="http://www.w3.org/2000/svg" xml:space="preserve" width="230px" height="30px" version="1.1" style="shape-rendering:geometricPrecision; text-rendering:geometricPrecision; image-rendering:optimizeQuality; fill-rule:evenodd; clip-rule:evenodd"
viewBox="0 0 229 30"
 xmlns:xlink="http://www.w3.org/1999/xlink">
 <defs>
  <style type="text/css">
   <![CDATA[
    .fil1 {fill:#898989;fill-rule:nonzero}
    .fil0 {fill:#EF7F1A;fill-rule:nonzero}
    .fil2 {fill:url(#id0)}
   ]]>
  </style>
  <linearGradient id="id0" gradientUnits="userSpaceOnUse" x1="-0.709966" y1="8.59526" x2="45.3037" y2="12.4835">
   <stop offset="0" style="stop-opacity:1; stop-color:#E95B21"/>
   <stop offset="0.458824" style="stop-opacity:1; stop-color:#EA6220"/>
   <stop offset="0.721569" style="stop-opacity:1; stop-color:#FDC407"/>
   <stop offset="1" style="stop-opacity:1; stop-color:#EF801D"/>
  </linearGradient>
 </defs>
 <g id="Слой_x0020_1">
  <metadata id="CorelCorpID_0Corel-Layer"/>
  <g id="_672637536">
   <g>
    <path class="fil0" d="M63 27l-5 0 0 -15 -5 0 0 -3 16 0 0 3 -6 0 0 15zm22 0l-15 0 0 -18 15 0 0 3 -10 0 0 4 8 0 0 4 -8 0 0 4 10 0 0 3zm6 0c-1,0 -3,0 -4,-1 0,-1 -1,-2 -1,-4l0 -8c0,-2 1,-3 1,-4 1,-1 3,-1 5,-1l9 0 0 3 -8 0c-1,0 -2,1 -2,2l0 8c0,1 0,1 0,1 1,1 1,1 1,1 1,0 1,0 1,0 1,0 1,0 2,0 0,0 1,0 1,0 1,0 1,0 2,0 1,0 2,0 3,0l0 3c-1,0 -2,0 -3,0 -1,0 -3,0 -4,0 -1,0 -2,0 -3,0zm28 0l-5 0 0 -7 -6 0 0 7 -5 0 0 -18 5 0 0 7 6 0 0 -7 5 0 0 18zm18 0l-5 0 -6 -11 0 11 -5 0 0 -18 5 0 6 11 0 -11 5 0 0 18zm14 -13c0,-1 0,-2 -1,-2l-5 0c-1,0 -1,1 -1,2l0 8c0,1 0,2 1,2l5 0c1,0 1,-1 1,-2l0 -8zm5 8c0,2 0,3 -1,4 -1,1 -2,2 -4,2l-7 0c-2,0 -3,-1 -4,-2 -1,-1 -1,-2 -1,-4l0 -8c0,-2 0,-3 1,-4 1,-1 2,-2 4,-2l7 0c2,0 3,1 4,2 1,1 1,2 1,4l0 8z"/>
    <path class="fil1" d="M158 9l11 0c2,0 4,0 4,1 1,1 2,2 2,4l0 3c0,2 -1,3 -2,4 0,1 -2,1 -4,1l-6 0 0 5 -5 0 0 -18zm12 5c0,-1 -1,-2 -2,-2l-5 0 0 6 5 0c1,0 2,0 2,-1l0 -3zm8 13l-5 0 7 -18 5 0 7 18 -5 0 -1 -3 -7 0 -1 3zm3 -6l4 0 -2 -7 -2 7zm12 -12l11 0c2,0 4,0 4,1 1,1 2,2 2,4l0 2c0,2 0,3 -1,4 0,1 -1,1 -2,1l3 6 -5 0 -3 -5 -4 0 0 5 -5 0 0 -18zm12 5c0,-1 -1,-2 -2,-2l-5 0 0 6 5 0c1,0 2,0 2,-2l0 -2zm12 13l-5 0 0 -18 5 0 0 7 2 0 5 -7 5 0 -6 9 6 9 -5 0 -5 -7 -2 0 0 7z"/>
   </g>
   <path class="fil2" d="M45 30l0 0c-13,0 -10,-4 -23,-4l0 0 0 -6c13,0 12,4 20,4l0 -14c-8,0 -8,-5 -20,-5l0 1 0 -1 -7 0 0 22 -7 0 0 -22 -8 0 0 -5 23 0 0 0c12,0 10,4 22,4l0 0 0 0 0 0 0 0 0 0c0,9 0,17 0,26zm-23 -14l0 -1 0 -5c9,0 7,-1 14,3 0,2 0,4 0,5 0,0 2,2 2,2 0,0 -2,-2 -2,-2 -1,0 -1,0 -1,0 -6,-3 -5,-2 -13,-2z"/>
  </g>
 </g>
</svg>
