<?xml version="1.0" encoding="utf-8"?>
<!-- Generator: Adobe Illustrator 21.0.0, SVG Export Plug-In . SVG Version: 6.00 Build 0)  -->
<svg version="1.1" id="ѓЊѓCѓ_x201E_Ѓ_x5B__1" xmlns="http://www.w3.org/2000/svg" xmlns:xlink="http://www.w3.org/1999/xlink"
	 x="0px" y="0px" viewBox="0 0 499.2 81.1" style="enable-background:new 0 0 499.2 81.1;" xml:space="preserve">
<style type="text/css">
	.st0{fill:#FFFFFF;}
	.st1{fill:#231916;}
	.st2{fill:#E50013;}
</style>
<path class="st0" d="M46.4,40.5c0,11.4-9.2,20.6-20.6,20.6c-11.4,0-20.6-9.2-20.6-20.6c0-11.4,9.2-20.6,20.6-20.6
	C37.2,19.9,46.4,29.1,46.4,40.5z"/>
<path class="st1" d="M70.9,40.5L1.2,0l22.5,18.5c-31.3,1.1-31.9,41.7,0,44L1.2,81.1L70.9,40.5z M5.2,40.5c0-11.4,9.2-20.6,20.6-20.6
	c11.4,0,20.6,9.2,20.6,20.6c0,11.4-9.2,20.6-20.6,20.6C14.5,61.1,5.2,51.9,5.2,40.5z"/>
<path class="st2" d="M9.9,44.9l-1.7,3.6h25.2c5.2,0,8.6-3.8,9.1-8.5c0.4-4.4-3.6-7.5-7.5-7.4H14.7l-1.8,4h3.8l-3.8,8.3L9.9,44.9
	L9.9,44.9z M27.2,36.3H30c2.5-0.1,1.7,3.6,1.7,3.3c-0.2,1.9-1.7,5.2-4.9,5.1l-3.5,0L27.2,36.3z"/>
<path class="st1" d="M494.2,19.9h-55.9l-3.8,8.2h8.7L432,52.8h-8.7l-3.8,8.2h38l3.8-8.2h-7.8l4-8.6h25.1c3.4,0,8.2-1,10.7-5.2
	C497.3,32.4,503.8,19.9,494.2,19.9z M475.4,30.9c-0.6,2.3-1.1,5.7-5.6,5.7h-9l3.9-8.5h9.2C476.2,28,475.7,29.9,475.4,30.9z"/>
<polygon class="st1" points="292,28 298.5,28 302.3,19.9 277.6,19.9 273.7,28 280.7,28 273.5,43.9 260.8,19.9 236.1,19.9 
	232.2,28.1 239.7,28.1 228.3,52.8 220.8,52.8 217.1,61 243,61 246.7,52.8 239.7,52.8 247,36.4 260.2,61 276.8,61 "/>
<path class="st1" d="M151.9,36.2c2.6-5.4,4.5-16.4-6.4-16.4h-50l-3.8,8.2h7.8L88,52.8h-7.8L76.4,61h49.3
	C144.2,61,149.3,41.7,151.9,36.2z M119.6,52.8h-9.7l11.3-24.7h7c5.4-0.3,3.9,3.8,2.6,8.4C129.5,41.2,124.4,52.7,119.6,52.8z"/>
<path class="st1" d="M177.2,61.5c-0.3,0,5.2,0,11.5-0.4c8.1-0.6,15.4-2.5,19.2-9.9l10.9-23h7.1l3.8-8.3H205l-3.8,8.2h7l-8.4,18.6
	c-2.8,5-4.3,5.9-11.2,5.7c-6.9-0.1-6.7-3.3-5.4-6.8l8-17.5h6.8l3.8-8.2h-36.4l-3.8,8.2h7.7c0,0-9.1,19.8-9.3,20.2
	C155.2,62.5,170.7,61.2,177.2,61.5z"/>
<polygon class="st1" points="302.8,52.8 295.3,52.8 291.5,61 346.5,61 355.9,40.5 348,40.5 337.4,52.8 325.2,52.8 336.4,28.1 
	343.4,28.1 347.2,19.9 310.1,19.9 306.3,28 314.1,28 "/>
<path class="st1" d="M364,60.5c1.9,0.6,15.3,2.4,31.1,1.5c22.7-0.1,28.5-20.5,31.8-29.5c2.2-5.9,2.2-12-10.9-13.3
	c-12.4-1-26.5-0.4-27.4-0.3c-5.9,0.5-13.1,1.2-19.7,7.1c-1.9,1.7-5.9,6.9-10.7,19.9C353.7,58,363.1,60.2,364,60.5z M380.6,44.7
	c1.8-4.8,6.2-13.4,7.3-14.9c2.4-3.3,5.4-3.4,12.7-2.9c2.8,0.6,6.3,2.3,2.4,10.5c-3.4,7.2-5.6,13.9-9.4,15.2c-3,1-6,1.2-10.3,0.7
	C379.9,52.9,378.3,51,380.6,44.7z"/>
</svg>
